<svg width="100%" height="100%" viewBox="0 0 187 200" version="1.1" xmlns="http://www.w3.org/2000/svg" xmlns:xlink="http://www.w3.org/1999/xlink" xml:space="preserve" xmlns:serif="http://www.serif.com/" style="fill-rule:evenodd;clip-rule:evenodd;stroke-linejoin:round;stroke-miterlimit:2;">
    <g transform="matrix(1,0,0,1,-31.9,-30)">
        <path d="M125,30L31.9,63.2L46.1,186.3L125,230L203.9,186.3L218.1,63.2L125,30Z" style="fill:rgb(0,132,68);fill-rule:nonzero;"/>
        <path d="M125,30L125,52.2L125,52.1L125,230L203.9,186.3L218.1,63.2L125,30Z" style="fill:rgb(1,67,34);fill-rule:nonzero;"/>
        <g transform="matrix(0.271958,0,0,0.271958,16.7313,27.6725)">
            <path d="M398.108,272.072C393.951,272.142 376.521,273.577 373.608,282.082C372.272,285.979 370.188,317.386 346.408,342.916C338.331,351.587 322.15,353.346 308.965,355.676C294.209,358.283 273.808,356.809 256.61,353.848C239.306,350.868 221.477,345.168 205.104,337.709C186.704,329.327 159.582,304.774 153.205,291.147C148.304,280.674 147.378,259.782 148.883,251.409C149.839,246.087 152.769,234.34 155.171,231.12C157.082,228.558 162.05,224.145 165.215,223.706C170.612,222.958 186.582,224.049 194.493,224.32C207.764,224.776 233.206,226.166 251.858,227.125C270.511,228.084 290.675,230.297 307.705,232.616C324.003,234.836 344.467,239.397 352.796,243.904C355.941,245.606 360.621,247.761 365.957,248.086C373.519,248.547 398.108,247.508 398.108,247.508L399.179,247.552C403.989,247.744 423.642,248.489 430.258,248.086C435.594,247.761 439.49,246.782 442.635,245.08C450.964,240.574 471.428,235.748 487.726,233.528C504.756,231.209 524.92,228.996 543.573,228.036C562.225,227.077 587.667,225.688 600.938,225.232C608.849,224.96 626.634,224.29 632.03,225.038C635.196,225.477 638.194,228.978 640.105,231.54C642.507,234.76 646.668,246.096 647.624,251.418C649.129,259.791 646.638,281.106 641.737,291.58C635.36,305.207 610.415,327.6 592.015,335.982C575.642,343.441 557.814,349.141 540.509,352.121C523.311,355.082 502.556,357.196 487.8,354.588C474.615,352.258 457.062,348.142 448.985,339.471C425.205,313.941 422.754,284.226 422.321,281.277C420.971,272.096 400.894,272.069 398.426,272.069L398.108,272.072Z" style="fill:white;"/>
        </g>
        <g transform="matrix(0.271958,0,0,0.271958,16.7313,27.6725)">
            <path d="M397.79,263.145C393.633,263.215 363.001,264.471 364.32,273.364C364.513,274.661 366.468,307.147 342.688,332.677C334.611,341.348 323.795,343.918 310.609,346.248C295.853,348.856 275.452,347.382 258.255,344.421C240.95,341.441 223.121,335.741 206.749,328.282C188.349,319.899 167.588,300.45 161.212,286.823C156.311,276.35 155.667,260.724 157.171,252.351C158.128,247.029 161.058,240.398 163.46,237.178C165.371,234.616 167.584,233.721 170.75,233.282C176.147,232.533 186.582,232.682 194.493,232.954C207.764,233.409 233.206,234.799 251.858,235.758C270.511,236.717 290.675,238.931 307.705,241.25C324.003,243.469 344.467,248.295 352.796,252.802C355.941,254.504 360.621,256.658 365.957,256.984C373.519,257.445 398.108,256.406 398.108,256.406L399.179,256.449C403.989,256.642 423.642,257.387 430.258,256.984C435.594,256.658 440.274,254.504 443.419,252.802C451.749,248.295 472.212,243.469 488.51,241.25C505.54,238.931 525.704,236.717 544.357,235.758C563.009,234.799 588.451,233.409 601.722,232.954C609.633,232.682 620.068,232.533 625.465,233.282C628.631,233.721 630.844,234.616 632.755,237.178C635.157,240.398 638.087,247.029 639.044,252.351C640.549,260.724 639.904,276.35 635.003,286.823C628.627,300.45 607.867,319.899 589.467,328.282C573.094,335.741 555.265,341.441 537.96,344.421C520.763,347.382 500.362,348.856 485.606,346.248C472.421,343.918 461.604,341.348 453.527,332.677C429.747,307.147 431.703,274.661 431.895,273.364C433.256,264.185 400.576,263.142 398.108,263.142L397.79,263.145Z" style="fill:rgb(43,42,41);"/>
        </g>
    </g>
</svg>
